<?xml version="1.0" encoding="UTF-8" standalone="no"?><!-- Generator: Gravit.io --><svg xmlns="http://www.w3.org/2000/svg" xmlns:xlink="http://www.w3.org/1999/xlink" style="isolation:isolate" viewBox="0 0 500 304.1" width="500pt" height="304.1pt"><defs><clipPath id="_clipPath_J2v9Az7KV5NcR2i003teoQoLW5lb2dOJ"><rect width="500" height="304.1"/></clipPath></defs><g clip-path="url(#_clipPath_J2v9Az7KV5NcR2i003teoQoLW5lb2dOJ)"><g><path d=" M 340.524 284.658 C 370.729 267.046 400.303 241.39 417.946 210.679 C 448.898 156.797 444.634 117.496 428.718 77.514 C 412.636 37.099 353.854 13.286 308.662 20.829 C 263.471 28.372 231.838 75.283 170.893 82.013 C 109.947 88.744 60.403 120.643 46.183 166.263 C 31.255 214.162 60.484 254.202 86.765 273.395 C 92.182 277.351 97.627 281.084 103.177 284.567 L 340.524 284.658 Z " fill-rule="evenodd" fill="rgb(0,0,0)" fill-opacity="0.04"/><path d=" M 32 193.483 C 102.767 193.483 109.358 279.313 109.358 279.313 C 109.358 279.313 122.193 217.731 164.862 217.731 C 207.531 217.731 220.366 279.313 220.366 279.313 C 220.366 279.313 229.038 165.771 297.724 165.771" fill="none" vector-effect="non-scaling-stroke" stroke-width="1.5" stroke-dasharray="4,4" stroke="rgb(51,51,51)" stroke-linejoin="miter" stroke-linecap="round" stroke-miterlimit="4"/><path d=" M 366.946 52.383 C 372.031 49.847 378.013 49.847 383.097 52.383 C 387.645 54.651 392.757 55.592 397.808 55.109 C 403.447 54.571 409.037 56.717 412.844 60.89 C 416.268 64.644 420.707 67.36 425.589 68.72 C 431.023 70.235 435.46 74.242 437.482 79.48 C 439.311 84.214 442.464 88.343 446.526 91.366 C 451.035 94.723 453.711 100.044 453.69 105.646 C 453.675 110.713 455.101 115.685 457.795 119.972 C 460.788 124.731 461.339 130.637 459.278 135.862 C 457.421 140.573 456.942 145.716 457.898 150.691 C 458.952 156.196 457.313 161.908 453.497 166.034 C 450.059 169.751 447.729 174.383 446.81 179.369 C 445.791 184.881 442.172 189.628 437.117 192.105 C 432.569 194.333 428.706 197.816 426.032 202.134 C 423.07 206.921 417.967 210.051 412.335 210.549 C 407.286 210.996 402.425 212.855 398.369 215.918 C 393.848 219.332 387.962 220.422 382.504 218.861 C 377.621 217.463 372.422 217.463 367.537 218.861 C 362.082 220.422 356.196 219.332 351.675 215.918 C 347.619 212.855 342.757 210.996 337.706 210.549 C 332.076 210.051 326.974 206.921 324.011 202.134 C 321.339 197.816 317.475 194.333 312.927 192.105 L 310.937 196.165 L 312.927 192.105 C 307.87 189.628 304.252 184.881 303.234 179.369 C 302.313 174.383 299.984 169.751 296.546 166.034 C 292.731 161.908 291.09 156.196 292.146 150.691 C 293.101 145.717 292.622 140.573 290.764 135.862 C 288.703 130.637 289.256 124.731 292.248 119.972 C 294.943 115.685 296.369 110.713 296.351 105.646 C 296.332 100.044 299.007 94.723 303.518 91.366 C 307.58 88.343 310.731 84.214 312.56 79.48 C 314.583 74.242 319.02 70.235 324.454 68.72 C 329.334 67.36 333.776 64.644 337.2 60.89 C 341.003 56.717 346.594 54.571 352.233 55.109 C 357.284 55.592 362.395 54.651 366.946 52.383 Z " fill="rgb(255,255,255)" vector-effect="non-scaling-stroke" stroke-width="3" stroke="rgb(255,255,255)" stroke-linejoin="miter" stroke-linecap="butt" stroke-miterlimit="4"/><path d=" M 364.927 48.337 C 371.283 45.168 378.758 45.168 385.114 48.337 L 385.114 48.337 C 388.902 50.225 393.167 51.011 397.38 50.609 L 397.38 50.609 C 404.426 49.936 411.415 52.614 416.183 57.843 L 416.183 57.843 C 419.031 60.965 422.732 63.231 426.804 64.366 L 426.804 64.366 C 433.6 66.26 439.158 71.269 441.701 77.851 L 441.701 77.851 C 443.22 81.784 445.842 85.222 449.224 87.739 L 449.224 87.739 C 454.878 91.946 458.238 98.615 458.211 105.662 L 458.211 105.662 C 458.199 109.871 459.383 114.003 461.623 117.566 L 461.623 117.566 C 465.378 123.54 466.074 130.955 463.485 137.52 L 463.485 137.52 C 461.942 141.434 461.544 145.706 462.337 149.838 L 462.337 149.838 C 463.666 156.762 461.602 163.928 456.816 169.104 L 456.816 169.104 C 453.956 172.196 452.021 176.049 451.255 180.19 L 451.255 180.19 C 449.974 187.122 445.435 193.063 439.106 196.165 L 439.106 196.165 C 435.315 198.022 432.096 200.925 429.875 204.514 L 429.875 204.514 C 426.156 210.522 419.773 214.43 412.735 215.053 L 412.735 215.053 C 408.522 215.425 404.469 216.977 401.093 219.525 L 401.093 219.525 C 395.433 223.798 388.076 225.158 381.262 223.207 L 381.262 223.207 C 377.19 222.042 372.853 222.042 368.782 223.207 L 368.782 223.207 C 361.964 225.158 354.608 223.798 348.951 219.525 L 348.951 219.525 C 345.575 216.977 341.522 215.425 337.308 215.053 L 337.308 215.053 C 330.271 214.43 323.886 210.522 320.167 204.514 L 320.167 204.514 C 317.946 200.925 314.728 198.022 310.937 196.165 L 310.937 196.165 C 304.607 193.063 300.069 187.122 298.788 180.19 L 298.788 180.19 C 298.023 176.049 296.087 172.196 293.228 169.104 L 293.228 169.104 C 288.441 163.928 286.378 156.762 287.707 149.838 L 287.707 149.838 C 288.5 145.706 288.102 141.434 286.558 137.52 L 286.558 137.52 C 283.969 130.955 284.665 123.54 288.42 117.566 L 288.42 117.566 C 290.66 114.003 291.845 109.871 291.831 105.662 L 291.831 105.662 C 291.806 98.615 295.165 91.946 300.819 87.739 L 300.819 87.739 C 304.201 85.222 306.824 81.784 308.343 77.851 L 308.343 77.851 C 310.885 71.269 316.443 66.26 323.24 64.366 L 323.24 64.366 C 327.31 63.231 331.012 60.965 333.858 57.843 L 333.858 57.843 C 338.628 52.614 345.618 49.936 352.664 50.609 L 352.664 50.609 C 356.877 51.011 361.142 50.225 364.927 48.337 L 364.927 48.337 Z " fill="none" vector-effect="non-scaling-stroke" stroke-width="1.5" stroke="rgb(51,51,51)" stroke-linejoin="miter" stroke-linecap="butt" stroke-miterlimit="4"/><path d=" M 330.551 51.257 C 337.39 51.936 351.883 57.636 355.162 75.008" fill="none" vector-effect="non-scaling-stroke" stroke-width="1.5" stroke="rgb(51,51,51)" stroke-linejoin="miter" stroke-linecap="round" stroke-miterlimit="4"/><path d=" M 352.429 67.035 C 357.727 65.113 368.598 57.773 369.692 43.794" fill="none" vector-effect="non-scaling-stroke" stroke-width="1.5" stroke="rgb(51,51,51)" stroke-linejoin="miter" stroke-linecap="round" stroke-miterlimit="4"/><path d=" M 318.247 65.17 C 318.247 71.108 324.912 78.911 331.407 78.911" fill="none" vector-effect="non-scaling-stroke" stroke-width="1.5" stroke="rgb(51,51,51)" stroke-linejoin="miter" stroke-linecap="round" stroke-miterlimit="4"/><path d=" M 337.345 132.744 C 331.549 131.277 322.284 135.761 320.68 142.008" fill="none" vector-effect="non-scaling-stroke" stroke-width="1.5" stroke="rgb(51,51,51)" stroke-linejoin="miter" stroke-linecap="round" stroke-miterlimit="4"/><path d=" M 262.822 116.921 C 258.967 115.597 252.414 118.121 250.966 122.275" fill="none" vector-effect="non-scaling-stroke" stroke-width="1.5" stroke="rgb(51,51,51)" stroke-linejoin="miter" stroke-linecap="round" stroke-miterlimit="4"/><path d=" M 304.231 108.26 C 305.883 106.168 310.384 102.458 315.17 104.358" fill="none" vector-effect="non-scaling-stroke" stroke-width="1.5" stroke="rgb(51,51,51)" stroke-linejoin="miter" stroke-linecap="round" stroke-miterlimit="4"/><path d=" M 436.539 139.25 C 433.911 138.735 428.543 136.431 428.082 131.336" fill="none" vector-effect="non-scaling-stroke" stroke-width="1.5" stroke="rgb(51,51,51)" stroke-linejoin="miter" stroke-linecap="round" stroke-miterlimit="4"/><path d=" M 373.182 237.987 C 373.143 240.646 371.823 246.303 366.856 247.666" fill="none" vector-effect="non-scaling-stroke" stroke-width="1.5" stroke="rgb(51,51,51)" stroke-linejoin="miter" stroke-linecap="round" stroke-miterlimit="4"/><path d=" M 286.457 92.822 C 295.516 86.714 312.095 85.9 324.4 92.822" fill="none" vector-effect="non-scaling-stroke" stroke-width="1.5" stroke="rgb(51,51,51)" stroke-linejoin="miter" stroke-linecap="round" stroke-miterlimit="4"/><path d=" M 463.681 101.475 C 464.703 112.297 457.428 127.105 445.384 134.468" fill="none" vector-effect="non-scaling-stroke" stroke-width="1.5" stroke="rgb(51,51,51)" stroke-linejoin="miter" stroke-linecap="round" stroke-miterlimit="4"/><path d=" M 402.06 106.737 C 403.082 117.559 395.807 132.368 383.761 139.73" fill="none" vector-effect="non-scaling-stroke" stroke-width="1.5" stroke="rgb(51,51,51)" stroke-linejoin="miter" stroke-linecap="round" stroke-miterlimit="4"/><path d=" M 422.16 113.857 C 422.16 113.857 419.767 101.134 431.9 86.035 C 444.037 70.936 452.753 70.597 452.753 70.597" fill="none" vector-effect="non-scaling-stroke" stroke-width="1.5" stroke="rgb(51,51,51)" stroke-linejoin="miter" stroke-linecap="round" stroke-miterlimit="4"/><path d=" M 308.452 204.426 C 305.27 194.025 309.415 178.071 319.731 168.466" fill="none" vector-effect="non-scaling-stroke" stroke-width="1.5" stroke="rgb(51,51,51)" stroke-linejoin="miter" stroke-linecap="round" stroke-miterlimit="4"/><path d=" M 329.014 106.055 C 338.414 108.43 348.429 116.472 351.576 126.922" fill="none" vector-effect="non-scaling-stroke" stroke-width="1.5" stroke="rgb(51,51,51)" stroke-linejoin="miter" stroke-linecap="round" stroke-miterlimit="4"/><path d=" M 345.593 84.34 C 349.466 91.183 356.054 109.211 351.404 126.583 C 346.757 143.955 352.317 153.726 355.678 156.441" fill="none" vector-effect="non-scaling-stroke" stroke-width="1.5" stroke="rgb(51,51,51)" stroke-linejoin="miter" stroke-linecap="round" stroke-miterlimit="4"/><path d=" M 314.999 116.742 C 299.104 123.697 287.721 140.052 285.943 162.717" fill="none" vector-effect="non-scaling-stroke" stroke-width="1.5" stroke="rgb(51,51,51)" stroke-linejoin="miter" stroke-linecap="round" stroke-miterlimit="4"/><path d=" M 295.685 133.199 C 299.787 136.139 308.64 144.905 311.238 156.441" fill="none" vector-effect="non-scaling-stroke" stroke-width="1.5" stroke="rgb(51,51,51)" stroke-linejoin="miter" stroke-linecap="round" stroke-miterlimit="4"/><path d=" M 438.226 164.821 C 425.824 161.291 409.939 165.875 395.068 179.165" fill="none" vector-effect="non-scaling-stroke" stroke-width="1.5" stroke="rgb(51,51,51)" stroke-linejoin="miter" stroke-linecap="round" stroke-miterlimit="4"/><path d=" M 409.905 85.651 C 397.504 82.121 381.618 86.704 366.747 99.994" fill="none" vector-effect="non-scaling-stroke" stroke-width="1.5" stroke="rgb(51,51,51)" stroke-linejoin="miter" stroke-linecap="round" stroke-miterlimit="4"/><path d=" M 462.834 174.253 C 442.156 190.709 421.635 177.831 416.641 167.1" fill="none" vector-effect="non-scaling-stroke" stroke-width="1.5" stroke="rgb(51,51,51)" stroke-linejoin="miter" stroke-linecap="round" stroke-miterlimit="4"/><path d=" M 383.324 88.57 C 367.257 67.647 380.732 47.601 391.663 42.91" fill="none" vector-effect="non-scaling-stroke" stroke-width="1.5" stroke="rgb(51,51,51)" stroke-linejoin="miter" stroke-linecap="round" stroke-miterlimit="4"/><path d=" M 330.551 180.021 C 330.551 180.021 340.979 186.976 343.029 202.075 C 345.081 217.173 338.243 223.959 338.243 223.959" fill="none" vector-effect="non-scaling-stroke" stroke-width="1.5" stroke="rgb(51,51,51)" stroke-linejoin="miter" stroke-linecap="round" stroke-miterlimit="4"/><path d=" M 372.661 121.832 C 372.661 121.832 383.085 128.788 385.138 143.886 C 387.187 158.985 380.352 165.771 380.352 165.771" fill="none" vector-effect="non-scaling-stroke" stroke-width="1.5" stroke="rgb(51,51,51)" stroke-linejoin="miter" stroke-linecap="round" stroke-miterlimit="4"/><path d=" M 343.541 203.093 C 347.302 200.888 356.838 197.393 364.906 201.058" fill="none" vector-effect="non-scaling-stroke" stroke-width="1.5" stroke="rgb(51,51,51)" stroke-linejoin="miter" stroke-linecap="round" stroke-miterlimit="4"/><path d=" M 414.926 73.055 C 419.107 74.31 428.151 78.916 430.891 87.292" fill="none" vector-effect="non-scaling-stroke" stroke-width="1.5" stroke="rgb(51,51,51)" stroke-linejoin="miter" stroke-linecap="round" stroke-miterlimit="4"/><path d=" M 297.778 31.942 C 301.959 33.198 311.004 37.804 313.744 46.18" fill="none" vector-effect="non-scaling-stroke" stroke-width="1.5" stroke="rgb(51,51,51)" stroke-linejoin="miter" stroke-linecap="round" stroke-miterlimit="4"/><path d=" M 468 147.035 C 465.3 150.444 457.69 157.135 448.832 156.624" fill="none" vector-effect="non-scaling-stroke" stroke-width="1.5" stroke="rgb(51,51,51)" stroke-linejoin="miter" stroke-linecap="round" stroke-miterlimit="4"/><path d=" M 324.229 159.663 C 328.103 159.381 337.935 161.462 346.278 172.047 C 354.617 182.633 360.69 185.846 362.685 186.128" fill="none" vector-effect="non-scaling-stroke" stroke-width="1.5" stroke="rgb(51,51,51)" stroke-linejoin="miter" stroke-linecap="round" stroke-miterlimit="4"/><path d=" M 348.671 174.932 C 351.802 174.932 358.857 174.321 362.001 171.878" fill="none" vector-effect="non-scaling-stroke" stroke-width="1.5" stroke="rgb(51,51,51)" stroke-linejoin="miter" stroke-linecap="round" stroke-miterlimit="4"/><path d=" M 379.092 200.039 C 387.07 199.87 404.764 197.766 411.738 190.709" fill="none" vector-effect="non-scaling-stroke" stroke-width="1.5" stroke="rgb(51,51,51)" stroke-linejoin="miter" stroke-linecap="round" stroke-miterlimit="4"/><path d=" M 399.429 197.156 C 403.302 201.171 414.161 208.692 426.605 206.656" fill="none" vector-effect="non-scaling-stroke" stroke-width="1.5" stroke="rgb(51,51,51)" stroke-linejoin="miter" stroke-linecap="round" stroke-miterlimit="4"/><path d=" M 396.108 63.834 C 399.505 60.073 408.365 52.56 416.641 52.593" fill="none" vector-effect="non-scaling-stroke" stroke-width="1.5" stroke="rgb(51,51,51)" stroke-linejoin="miter" stroke-linecap="round" stroke-miterlimit="4"/><path d=" M 441.475 103.171 C 440.222 107.525 440.653 118.982 452.412 129.975" fill="none" vector-effect="non-scaling-stroke" stroke-width="1.5" stroke="rgb(51,51,51)" stroke-linejoin="miter" stroke-linecap="round" stroke-miterlimit="4"/><path d=" M 300.144 56.211 C 297.516 55.696 292.146 53.392 291.686 48.297" fill="none" vector-effect="non-scaling-stroke" stroke-width="1.5" stroke="rgb(51,51,51)" stroke-linejoin="miter" stroke-linecap="round" stroke-miterlimit="4"/><path d=" M 388.224 237.988 C 385.596 237.473 380.225 235.17 379.767 230.074" fill="none" vector-effect="non-scaling-stroke" stroke-width="1.5" stroke="rgb(51,51,51)" stroke-linejoin="miter" stroke-linecap="round" stroke-miterlimit="4"/><line x1="86.418" y1="284.658" x2="388.326" y2="284.658" vector-effect="non-scaling-stroke" stroke-width="1.5" stroke="rgb(51,51,51)" stroke-linejoin="miter" stroke-linecap="square" stroke-miterlimit="4"/><path d=" M 247.067 103.787 C 245.642 102.895 245.449 100.935 246.672 99.787 C 253.466 93.405 262.493 92.527 270.404 97.48 C 271.829 98.372 272.022 100.332 270.799 101.481 C 264.005 107.863 254.978 108.74 247.067 103.787 Z " fill="rgb(255,255,255)" vector-effect="non-scaling-stroke" stroke-width="1.5" stroke="rgb(51,51,51)" stroke-linejoin="miter" stroke-linecap="butt" stroke-miterlimit="4"/><path d=" M 420.165 239.378 C 420.351 241.031 418.799 242.288 417.205 241.777 C 412.754 240.35 409.86 236.838 409.339 232.221 C 409.152 230.568 410.704 229.311 412.298 229.822 C 416.753 231.249 419.643 234.762 420.165 239.378 Z " fill="rgb(255,255,255)" vector-effect="non-scaling-stroke" stroke-width="1.5" stroke="rgb(51,51,51)" stroke-linejoin="miter" stroke-linecap="butt" stroke-miterlimit="4"/><path d=" M 262.876 81.027 C 262.16 79.519 263.233 77.825 264.912 77.812 C 269.483 77.777 273.262 80.136 275.209 84.24 C 275.925 85.748 274.852 87.441 273.173 87.454 C 268.602 87.49 264.823 85.131 262.876 81.027 Z " fill="rgb(255,255,255)" vector-effect="non-scaling-stroke" stroke-width="1.5" stroke="rgb(51,51,51)" stroke-linejoin="miter" stroke-linecap="butt" stroke-miterlimit="4"/></g></g></svg>